<svg width="169" height="153" viewBox="0 0 169 153" fill="none" xmlns="http://www.w3.org/2000/svg">
<path fill-rule="evenodd" clip-rule="evenodd" d="M83.8843 150.429C118.253 150.429 146.114 123.287 146.114 89.8059C146.114 56.3249 118.253 29.1831 83.8843 29.1831C49.516 29.1831 21.6549 56.3249 21.6549 89.8059C21.6549 123.287 49.516 150.429 83.8843 150.429Z" fill="#AADDC7"/>
<mask id="mask0" mask-type="alpha" maskUnits="userSpaceOnUse" x="0" y="0" width="169" height="153">
<path fill-rule="evenodd" clip-rule="evenodd" d="M83.8843 150.429C112.403 150.429 136.442 131.74 143.798 106.248C145.307 101.019 168.705 83.7797 168.705 78.0814C168.705 44.6003 118.253 0.392578 83.8843 0.392578C49.516 0.392578 -22.0905 136.026 8.19016 150.429C26.276 159.031 38.1402 131.036 40.5523 133.317C51.7567 143.908 67.0388 150.429 83.8843 150.429Z" fill="white"/>
</mask>
<g mask="url(#mask0)">
<path fill-rule="evenodd" clip-rule="evenodd" d="M86.9251 35.9317C90.9153 38.2748 94.836 39.407 96.6763 38.9448C101.291 37.7861 101.715 21.3412 98.1446 14.8581C94.5742 8.37494 76.2195 5.54917 75.2943 18.3943C74.9733 22.8521 76.8945 26.8304 79.7332 30.0767L74.6423 53.1921H89.4295L86.9251 35.9317Z" fill="#B28B67"/>
<path fill-rule="evenodd" clip-rule="evenodd" d="M97.6965 11.2068C97.9629 10.4591 99.7783 8.14262 96.5451 5.9357C95.9641 5.53911 95.0043 5.9344 94.1726 5.68408C93.5469 5.49574 93.336 4.64532 92.6187 4.49696C91.8746 4.34304 91.0639 5.04062 90.2229 4.97932C89.7076 4.94176 88.9125 4.15942 88.376 4.11728C87.4183 4.04205 86.5483 4.92268 85.613 4.97932C85.0707 5.01215 84.4416 4.16224 83.9035 4.11728C82.5937 4.00784 81.4008 4.60269 80.2466 4.78309C79.1828 4.94935 78.6882 7.07303 77.9046 7.57493C75.4457 9.14994 73.5192 9.59032 71.5239 11.2068C69.152 13.1284 68.698 14.5581 67.7154 15.8386C66.7328 17.1191 66.1258 21.6306 66.6989 24.522C67.0369 26.2275 67.9178 30.8854 69.8856 32.6888C72.579 35.1571 78.0586 35.8885 78.5451 35.5591C80.7979 34.0339 85.8479 25.5978 89.4295 22.6164C92.0633 20.424 96.0464 15.8386 97.6965 11.2068Z" fill="#FF9B21"/>
<mask id="mask1" mask-type="alpha" maskUnits="userSpaceOnUse" x="66" y="4" width="33" height="32">
<path fill-rule="evenodd" clip-rule="evenodd" d="M97.6965 11.2068C97.9629 10.4591 99.7783 8.14262 96.5451 5.9357C95.9641 5.53911 95.0043 5.9344 94.1726 5.68408C93.5469 5.49574 93.336 4.64532 92.6187 4.49696C91.8746 4.34304 91.0639 5.04062 90.2229 4.97932C89.7076 4.94176 88.9125 4.15942 88.376 4.11728C87.4183 4.04205 86.5483 4.92268 85.613 4.97932C85.0707 5.01215 84.4416 4.16224 83.9035 4.11728C82.5937 4.00784 81.4008 4.60269 80.2466 4.78309C79.1828 4.94935 78.6882 7.07303 77.9046 7.57493C75.4457 9.14994 73.5192 9.59032 71.5239 11.2068C69.152 13.1284 68.698 14.5581 67.7154 15.8386C66.7328 17.1191 66.1258 21.6306 66.6989 24.522C67.0369 26.2275 67.9178 30.8854 69.8856 32.6888C72.579 35.1571 78.0586 35.8885 78.5451 35.5591C80.7979 34.0339 85.8479 25.5978 89.4295 22.6164C92.0633 20.424 96.0464 15.8386 97.6965 11.2068Z" fill="white"/>
</mask>
<g mask="url(#mask1)">
<path fill-rule="evenodd" clip-rule="evenodd" d="M82.3653 20.5677C84.0246 15.6062 87.0389 3.2179 87.0389 3.2179L85.2178 3.40437C85.2178 3.40437 83.7759 11.3087 82.2933 16.4293C80.938 21.1106 79.3795 25.7006 78.1543 29.3094C76.4614 34.2952 75.4045 37.4083 76.3974 36.302C76.5163 36.1695 76.6351 36.0153 76.7545 35.8395C76.7656 35.8629 76.7827 35.8766 76.8061 35.8802C76.7364 36.0144 76.8318 35.9553 77.1182 35.6972L77.1275 35.6888L77.1406 35.6769C78.8496 34.1281 83.6935 28.7314 88.7657 19.802C91.1058 15.6823 95.3979 5.2448 95.3979 5.2448L93.6936 4.53455C93.6936 4.53455 90.8587 12.781 88.7657 16.7796C85.0857 23.8105 81.6336 29.0389 79.389 32.2442C80.3192 30.4359 81.4142 28.0124 82.78 24.9895L82.78 24.9894L82.7801 24.9892C83.3816 23.6581 84.0355 22.2107 84.751 20.6485C86.9336 15.8831 91.2607 3.86961 91.2607 3.86961H89.4295C89.4295 3.86961 87.1473 11.5838 85.1235 16.5254C83.2732 21.043 81.2309 25.4491 79.6251 28.9133L79.6251 28.9134L79.6251 28.9134C79.5979 28.9721 79.5709 29.0304 79.5439 29.0885C79.9487 27.8909 80.3874 26.5565 80.8709 25.0856C81.3262 23.7005 81.8213 22.1944 82.3653 20.5677Z" fill="black" fill-opacity="0.2"/>
</g>
<path fill-rule="evenodd" clip-rule="evenodd" d="M62.7165 103.011C63.8275 117.782 135.397 161.271 135.815 162.491C136.093 163.305 113.538 213.92 113.538 213.92L119.794 216.288C119.794 216.288 154.39 162.683 152.613 156.971C150.069 148.794 97.0831 103.168 97.0831 103.168L62.7165 103.011Z" fill="#B28B67"/>
<path fill-rule="evenodd" clip-rule="evenodd" d="M115.184 206.299L125.398 209.921C146.937 186.247 155.379 166.713 153.84 156.761C152.301 146.808 98.5016 103.047 98.5016 103.047L61.984 103.047C63.23 137.255 129.566 162.621 130.453 164.079C131.341 165.537 122.609 179.814 115.184 206.299Z" fill="#2F3676"/>
<path fill-rule="evenodd" clip-rule="evenodd" d="M70.9455 103.011L39.0631 177.575L7.72772 240.613H15.1208L96.0059 103.011H70.9455Z" fill="#997659"/>
<path fill-rule="evenodd" clip-rule="evenodd" d="M10.5575 227.518L26.9849 230.519C39.6865 212.327 92.8434 137.735 98.6715 103.011H62.1004C42.6372 128.113 22.6647 209.025 10.5575 227.518Z" fill="#5C63AB"/>
<rect x="10" y="137.108" width="100" height="95.6055" fill="#C4C4C4"/>
<path fill-rule="evenodd" clip-rule="evenodd" d="M148.723 77.0236L126.397 86.575L133.526 95.4716L150.246 82.9831C158.598 81.4887 162.471 80.2049 161.866 79.1317C161.356 78.2268 160.406 78.1758 159.532 78.1288C158.85 78.0922 158.215 78.058 157.867 77.6245C157.074 76.6346 159.032 73.5765 161.017 70.7519C163.002 67.9272 161.141 68.0293 160.052 68.367C156.41 70.3416 152.634 73.2271 148.723 77.0236ZM48.7648 91.6461L36.1391 89.2057C27.5765 111.192 22.4716 123.24 20.8246 125.35C19.6168 126.898 12.1681 130.884 7.1264 133.012C5.10273 133.867 5.53723 135.533 6.13076 136.066C9.87461 139.428 13.3551 138.249 17.1438 136.967C18.2406 136.595 19.3633 136.215 20.5256 135.934C23.5342 135.206 24.4498 136.713 25.315 138.138C26.081 139.399 26.8076 140.595 28.9125 140.118C28.8168 139.715 28.6992 139.264 28.5722 138.778C27.7517 135.632 26.5416 130.994 28.3369 128.299C29.2583 126.915 36.0675 114.698 48.7648 91.6461Z" fill="#B28B67"/>
<path fill-rule="evenodd" clip-rule="evenodd" d="M83.0803 43.1876L88.408 42.2974C100.012 53.2635 104.748 79.6096 112.481 83.0969C119.793 86.394 130.158 83.2034 142.478 78.8953L146.251 87.1077C135.057 98.9057 111.209 108.873 101.543 103.183C86.0879 94.0854 82.52 61.5915 83.0803 43.1876Z" fill="#DB2721"/>
<path fill-rule="evenodd" clip-rule="evenodd" d="M59.8552 108.413C59.8552 108.413 91.8988 108.413 106.996 108.413C109.15 108.413 108.745 105.383 108.433 103.854C104.839 86.2068 90.8105 67.1843 90.8105 42.0644L77.2127 39.9872C65.9656 57.6089 62.0762 79.3047 59.8552 108.413Z" fill="#DDE3E9"/>
<path fill-rule="evenodd" clip-rule="evenodd" d="M76.4907 39.9872H76.3355C45.836 58.2967 27.4038 86.6792 21.0388 125.135L30.92 127.02C37.4655 119.591 45.5432 107.433 55.1533 90.5461C52.2049 100.719 50.0522 111.152 49.3809 121.018H91.8154C100.03 100.793 81.7195 39.9872 81.7195 39.9872H78.7898H76.4907Z" fill="#FF4133"/>
</g>
</svg>
