<?xml version="1.0" encoding="iso-8859-1"?>
<!-- Generator: Adobe Illustrator 19.0.0, SVG Export Plug-In . SVG Version: 6.00 Build 0)  -->
<svg version="1.1" id="Capa_1" xmlns="http://www.w3.org/2000/svg" xmlns:xlink="http://www.w3.org/1999/xlink" x="0px" y="0px"
	 viewBox="0 0 511.816 511.816" style="enable-background:new 0 0 511.816 511.816;" xml:space="preserve">
<g>
	<g>
		<path style="fill:#95A5A5;" d="M216.95,472.747h-8.678c-4.793,0-8.678-3.885-8.678-8.678c0-4.793,3.885-8.678,8.678-8.678h8.678
			c4.793,0,8.678,3.885,8.678,8.678C225.628,468.862,221.742,472.747,216.95,472.747z"/>
		<path style="fill:#95A5A5;" d="M416.543,472.747h-11.712c-4.793,0-8.678-3.885-8.678-8.678c0-4.793,3.885-8.678,8.678-8.678
			h11.712c1.619,0,3.229-0.049,4.831-0.148c3.098-0.197,6.065,1.276,7.781,3.862c1.716,2.587,1.92,5.893,0.534,8.671
			c-1.386,2.778-4.15,4.604-7.248,4.789C420.483,472.688,418.517,472.748,416.543,472.747z M370.67,472.747h-17.085
			c-4.793,0-8.678-3.885-8.678-8.678c0-4.793,3.885-8.678,8.678-8.678h17.085c4.793,0,8.678,3.885,8.678,8.678
			C379.348,468.862,375.463,472.747,370.67,472.747z M319.433,472.747h-17.085c-4.793,0-8.678-3.885-8.678-8.678
			c0-4.793,3.885-8.678,8.678-8.678h17.085c4.793,0,8.678,3.885,8.678,8.678C328.111,468.862,324.225,472.747,319.433,472.747z
			 M268.187,472.747h-17.076c-4.793,0-8.678-3.885-8.678-8.678c0-4.793,3.885-8.678,8.678-8.678h17.076
			c4.793,0,8.678,3.885,8.678,8.678C276.865,468.862,272.98,472.747,268.187,472.747z M454.695,463.857
			c-4.034,0.002-7.538-2.776-8.457-6.704c-0.918-3.929,0.992-7.972,4.609-9.758c4.602-2.271,8.97-4.987,13.042-8.11
			c2.46-1.886,5.739-2.317,8.603-1.13c2.864,1.187,4.876,3.812,5.28,6.886c0.404,3.074-0.863,6.129-3.323,8.015
			c-4.972,3.814-10.305,7.132-15.924,9.907C457.334,463.55,456.024,463.856,454.695,463.857L454.695,463.857z M491.585,429.387
			c-3.105-0.004-5.971-1.665-7.517-4.358c-1.546-2.692-1.536-6.006,0.026-8.689c2.581-4.432,4.722-9.107,6.39-13.958
			c1.556-4.531,6.491-6.942,11.021-5.386c4.531,1.556,6.942,6.491,5.386,11.021c-2.031,5.929-4.643,11.643-7.797,17.059
			C497.539,427.75,494.678,429.392,491.585,429.387L491.585,429.387z M503.128,380.247c-4.568-0.004-8.351-3.548-8.652-8.106
			c-0.336-5.11-1.176-10.174-2.508-15.119c-0.816-2.993,0.029-6.194,2.216-8.395c2.187-2.201,5.383-3.066,8.381-2.269
			s5.343,3.134,6.149,6.13c1.638,6.052,2.672,12.252,3.085,18.508c0.315,4.782-3.303,8.914-8.085,9.233
			C503.517,380.243,503.323,380.247,503.128,380.247L503.128,380.247z M485.221,333.061c-2.691,0.006-5.231-1.241-6.873-3.373
			c-3.138-4.062-6.667-7.807-10.534-11.182c-3.599-3.157-3.962-8.632-0.811-12.237c3.151-3.604,8.626-3.976,12.235-0.831
			c4.713,4.119,9.013,8.687,12.839,13.64c2.024,2.617,2.384,6.157,0.927,9.127S488.529,333.058,485.221,333.061L485.221,333.061z
			 M444.119,303.709c-0.946,0-1.885-0.156-2.78-0.462c-4.848-1.636-9.848-2.786-14.924-3.432c-3.08-0.386-5.72-2.387-6.923-5.249
			c-1.203-2.862-0.785-6.148,1.094-8.619c1.88-2.47,4.936-3.749,8.015-3.352c6.224,0.793,12.353,2.204,18.297,4.212
			c4.024,1.363,6.47,5.438,5.781,9.631C451.99,300.629,448.368,303.706,444.119,303.709L444.119,303.709z M393.382,299.188h-17.085
			c-4.793,0-8.678-3.885-8.678-8.678c0-4.793,3.885-8.678,8.678-8.678h17.085c4.793,0,8.678,3.885,8.678,8.678
			C402.06,295.302,398.175,299.188,393.382,299.188z M342.145,299.188H325.06c-4.793,0-8.678-3.885-8.678-8.678
			c0-4.793,3.885-8.678,8.678-8.678h17.085c4.793,0,8.678,3.885,8.678,8.678C350.822,295.302,346.937,299.188,342.145,299.188
			L342.145,299.188z M290.899,299.188h-8.864c-3.346,0.001-6.684-0.348-9.958-1.042c-3.051-0.626-5.533-2.84-6.502-5.8
			c-0.969-2.96-0.278-6.213,1.813-8.523c2.09-2.31,5.258-3.322,8.3-2.652c2.087,0.44,4.215,0.662,6.348,0.661h8.864
			c4.793,0,8.678,3.885,8.678,8.678C299.577,295.302,295.691,299.188,290.899,299.188L290.899,299.188z M247.509,278.383
			c-3.217,0.002-6.172-1.776-7.678-4.619c-3.277-6.172-5.147-12.994-5.475-19.975c-0.231-4.787,3.459-8.856,8.246-9.093
			c4.77-0.183,8.81,3.481,9.093,8.246c0.208,4.439,1.394,8.777,3.475,12.703c1.423,2.688,1.334,5.926-0.234,8.532
			C253.369,276.784,250.551,278.379,247.509,278.383L247.509,278.383z M255.551,231.438c-3.572,0-6.779-2.189-8.081-5.516
			c-1.302-3.326-0.432-7.111,2.191-9.535c5.134-4.734,11.239-8.29,17.89-10.42c2.954-0.942,6.185-0.236,8.477,1.851
			c2.292,2.087,3.297,5.238,2.636,8.267c-0.661,3.029-2.888,5.474-5.842,6.416c-4.231,1.356-8.115,3.619-11.381,6.631
			C259.839,230.617,257.735,231.441,255.551,231.438L255.551,231.438z M321.229,221.086h-17.076c-4.793,0-8.678-3.885-8.678-8.678
			c0-4.793,3.885-8.678,8.678-8.678h17.076c4.793,0,8.678,3.885,8.678,8.678C329.907,217.201,326.022,221.086,321.229,221.086z"/>
		<path style="fill:#95A5A5;" d="M364.475,221.086h-8.678c-4.793,0-8.678-3.885-8.678-8.678c0-4.793,3.885-8.678,8.678-8.678h8.678
			c4.793,0,8.678,3.885,8.678,8.678C373.153,217.201,369.268,221.086,364.475,221.086z"/>
	</g>
	<g>
		<path style="fill:#7F8C8D;" d="M142.58,420.679c38.443,6.543,65.692,22.819,65.692,41.795c0,24.864-46.601,44.985-104.136,44.985
			S0.001,487.338,0.001,462.474c0-18.975,27.249-35.252,65.692-41.795H142.58z"/>
		<path style="fill:#7F8C8D;" d="M465.921,173.878c22.216,7.289,37.402,21.782,37.402,38.53c0,23.951-31.067,43.39-69.424,43.39
			s-69.424-19.439-69.424-43.39c0-16.748,15.186-31.241,37.402-38.53H465.921z"/>
	</g>
	<path style="fill:#285680;" d="M503.323,73.781c0,27.093-34.446,98.64-54.811,130.583c-3.171,5.008-8.686,8.043-14.613,8.043
		s-11.442-3.035-14.613-8.043c-20.365-31.944-54.811-103.49-54.811-130.583c0-38.342,31.082-69.424,69.424-69.424
		S503.323,35.44,503.323,73.781z"/>
	<circle style="fill:#4482C3;" cx="433.899" cy="73.561" r="34.712"/>
	<path style="fill:#CC4B4C;" d="M208.272,247.451c0,40.64-51.669,147.959-82.216,195.875c-4.756,7.512-13.028,12.065-21.919,12.065
		s-17.163-4.553-21.919-12.065C51.669,395.41,0.001,288.091,0.001,247.451c-0.118-37.283,19.704-71.784,51.973-90.459
		s72.058-18.675,104.326,0S208.39,210.169,208.272,247.451z"/>
	<circle style="fill:#802F34;" cx="104.136" cy="247.12" r="60.746"/>
</g>
<g>
</g>
<g>
</g>
<g>
</g>
<g>
</g>
<g>
</g>
<g>
</g>
<g>
</g>
<g>
</g>
<g>
</g>
<g>
</g>
<g>
</g>
<g>
</g>
<g>
</g>
<g>
</g>
<g>
</g>
</svg>
