<svg width="160" height="157" viewBox="0 0 160 157" fill="none" xmlns="http://www.w3.org/2000/svg">
<path fill-rule="evenodd" clip-rule="evenodd" d="M84.8843 154.626C119.253 154.626 147.114 127.484 147.114 94.0033C147.114 60.5222 119.253 33.3804 84.8843 33.3804C50.516 33.3804 22.6549 60.5222 22.6549 94.0033C22.6549 127.484 50.516 154.626 84.8843 154.626Z" fill="#DDAAC4"/>
<mask id="mask0" mask-type="alpha" maskUnits="userSpaceOnUse" x="0" y="0" width="160" height="157">
<path fill-rule="evenodd" clip-rule="evenodd" d="M84.8843 154.626C103.567 154.626 120.327 146.606 131.733 133.907C137.739 127.22 153.356 142.699 155.894 133.907C156.449 131.981 163.929 107.852 155.894 85.8132C142.115 48.0225 108.929 0.0341797 84.8843 0.0341797C38.0564 0.0341797 -21.0905 140.224 9.19017 154.626C27.276 163.228 39.1402 135.234 41.5523 137.514C52.7567 148.106 68.0388 154.626 84.8843 154.626Z" fill="white"/>
</mask>
<g mask="url(#mask0)">
<path fill-rule="evenodd" clip-rule="evenodd" d="M79.9552 41.6077C86.997 41.6077 89.558 33.3949 93.5586 28.888C96.421 25.6633 101.306 26.6249 102.752 22.1105C106.388 10.7586 96.6562 2.76891 83.9601 2.76891C71.264 2.76891 62.7035 9.7761 60.8551 20.3098C59.0067 30.8435 67.2591 41.6077 79.9552 41.6077Z" fill="#191847"/>
<path fill-rule="evenodd" clip-rule="evenodd" d="M87.9251 40.129C91.9153 42.4722 95.8359 43.6043 97.6763 43.1422C102.291 41.9835 102.715 25.5385 99.1446 19.0554C95.5742 12.5723 77.2195 9.74653 76.2943 22.5917C75.9732 27.0494 77.8945 31.0277 80.7332 34.2741L75.6423 57.3895H90.4295L87.9251 40.129Z" fill="#B28B67"/>
<path fill-rule="evenodd" clip-rule="evenodd" d="M77.2546 13.573C65.9281 24.377 77.2979 35.8604 80.4132 35.8604C80.6143 34.3016 81.2277 32.7852 82.1265 31.342C81.6491 30.7397 81.3662 29.9907 81.3662 29.1789C81.3662 27.1899 83.0645 25.5775 85.1595 25.5775C85.8138 25.5775 86.4294 25.7348 86.9667 26.0117C91.5076 22.239 97.2029 19.6089 100.031 19.0918C104.949 18.1923 88.5811 2.76891 77.2546 13.573Z" fill="#191847"/>
<path fill-rule="evenodd" clip-rule="evenodd" d="M70.7133 107.208L93.8989 181.051L105.131 243.849H113.937L102.069 107.208H70.7133Z" fill="#997659"/>
<path fill-rule="evenodd" clip-rule="evenodd" d="M62.4187 107.208C63.9935 147.752 62.1402 168.665 61.7877 172.348C61.4353 176.032 56.6089 199.916 45.183 245.085L54.5669 241.946C72.6244 200.519 78.7778 178.989 80.8489 173.549C82.9199 168.109 88.4206 145.995 97.3508 107.208H62.4187Z" fill="#B28B67"/>
<path fill-rule="evenodd" clip-rule="evenodd" d="M67.6326 107.208L77.4907 144.83H107.601L103.112 107.208H67.6326Z" fill="#69A1AC"/>
<path fill-rule="evenodd" clip-rule="evenodd" d="M62.0874 107.208C57.2219 121.416 60.239 144.83 60.239 144.83H90.9657L99.4149 107.208H62.0874Z" fill="#89C5CC"/>
<path fill-rule="evenodd" clip-rule="evenodd" d="M22.8794 128.987C25.1772 125.698 38.4693 90.7236 38.4693 90.7236L49.3821 92.2675C49.3821 92.2675 31.8112 129.406 30.5422 131.55C28.8936 134.334 30.3518 138.907 31.3405 142.008C31.4935 142.488 31.6352 142.932 31.7525 143.33C29.6755 143.914 28.8854 142.756 28.0524 141.535C27.1115 140.156 26.1159 138.696 23.1497 139.577C22.0037 139.917 20.9027 140.354 19.827 140.781C16.1114 142.256 12.6979 143.611 8.77741 140.443C8.15586 139.941 7.63228 138.298 9.60785 137.341C14.5297 134.957 21.7561 130.595 22.8794 128.987ZM141.289 112.731L122.69 97.3706L117.606 107.512L136.458 116.678C141.498 123.335 144.38 126.164 145.105 125.164C145.716 124.32 145.347 123.466 145.007 122.68C144.742 122.067 144.495 121.496 144.743 121.002C145.308 119.873 148.988 120.247 152.464 120.747C155.941 121.246 155.031 119.662 154.242 118.857C150.823 116.533 146.506 114.491 141.289 112.731Z" fill="#B28B67"/>
<path fill-rule="evenodd" clip-rule="evenodd" d="M84.0803 47.3849L90.8423 45.2065C100.015 67.529 113.695 89.1272 136.551 107.37L130.899 116.87C110.812 105.343 91.7964 96.3879 84.0803 79.0905C81.4905 73.285 83.869 54.3265 84.0803 47.3849Z" fill="#C5CFD6"/>
<path fill-rule="evenodd" clip-rule="evenodd" d="M60.8551 110.209C60.8551 110.209 89.9104 113.211 106.595 110.209C107.973 109.962 108.19 107.714 107.551 106.188C97.5991 82.4336 90.7747 61.7061 90.7747 45.2065C88.0357 46.5517 81.1875 45.6097 81.1875 45.6097C68.918 62.6131 63.2781 82.1225 60.8551 110.209Z" fill="#323337"/>
<path fill-rule="evenodd" clip-rule="evenodd" d="M77.6714 44.1845C77.9881 43.9766 78.1553 43.8732 78.1553 43.8732L78.1373 44.1845H83.2506C83.5075 45.6566 83.8839 51.1129 84.4327 59.069C86.4269 87.9802 90.6981 149.9 99.7889 173.597H37.0634C38.3868 146.656 48.5828 114.439 59.1449 87.0829C51.351 94.637 42.2487 107.3 34.8925 128.38L23.1433 125.442C35.1168 75.1792 70.1969 49.2575 77.0037 44.631C77.0702 44.4814 77.1363 44.3325 77.2021 44.1845H77.6714Z" fill="#DDE3E9"/>
</g>
</svg>
