<svg width="168" height="158" viewBox="0 0 168 158" fill="none" xmlns="http://www.w3.org/2000/svg">
<path fill-rule="evenodd" clip-rule="evenodd" d="M84.8843 155.582C119.253 155.582 147.114 128.44 147.114 94.9594C147.114 61.4783 119.253 34.3365 84.8843 34.3365C50.516 34.3365 22.6549 61.4783 22.6549 94.9594C22.6549 128.44 50.516 155.582 84.8843 155.582Z" fill="#D9D0AA"/>
<mask id="mask0" mask-type="alpha" maskUnits="userSpaceOnUse" x="0" y="0" width="168" height="158">
<path fill-rule="evenodd" clip-rule="evenodd" d="M84.8843 155.582C103.567 155.582 120.327 147.562 131.733 134.863C137.739 128.176 153.356 143.655 155.894 134.863C156.449 132.937 163.929 108.808 155.894 86.7692C152.643 77.854 171.71 43.6229 166.674 34.3365C150.363 4.25905 103.256 0.990234 84.8843 0.990234C38.0564 0.990234 -21.0905 141.18 9.19015 155.582C27.276 164.184 39.1402 136.19 41.5523 138.47C52.7567 149.062 68.0388 155.582 84.8843 155.582Z" fill="white"/>
</mask>
<g mask="url(#mask0)">
<path fill-rule="evenodd" clip-rule="evenodd" d="M87.9251 41.0851C91.9153 43.4282 95.836 44.5604 97.6763 44.0982C102.291 42.9395 102.715 26.4946 99.1446 20.0115C95.5742 13.5283 77.2195 10.7026 76.2943 23.5477C75.9733 28.0055 77.8945 31.9838 80.7332 35.2301L75.6423 58.3455H90.4295L87.9251 41.0851Z" fill="#B28B67"/>
<path fill-rule="evenodd" clip-rule="evenodd" d="M100.54 22.9224C100.393 22.082 100.035 21.1488 99.7464 20.3538C99.374 19.3289 98.8105 18.4048 98.1903 17.5339C97.0227 15.8942 95.622 14.4135 94.0756 13.1846C91.2507 10.9398 87.6548 9.64505 84.1187 10.0655C82.3334 10.2778 80.6002 10.9413 79.125 12.0455C77.7923 13.0432 76.5103 14.512 74.7845 14.6175C72.9067 14.7322 71.1854 13.1176 69.6794 12.1204C67.9814 10.9962 66.175 10.177 64.1904 9.85856C60.8658 9.32529 57.7426 10.4195 55.4513 13.0768C53.0131 15.9045 51.2407 20.0513 52.8419 23.798C53.1395 24.4945 53.5224 25.0816 54.0719 25.5683C54.5759 26.0145 55.3456 26.4893 55.5499 27.2023C55.767 27.9603 55.1186 28.938 54.8672 29.6219C54.5071 30.6018 54.2113 31.6303 54.3165 32.6953C54.4892 34.4443 55.6175 36.1139 56.8088 37.2635C58.0212 38.4333 59.5133 39.1041 61.1071 39.4133C62.1713 39.6198 63.2588 39.7337 64.3404 39.6562C64.8773 39.6177 65.3511 39.4724 65.8713 39.3569C66.3772 39.2445 66.6599 39.3754 67.0891 39.6457C69.083 40.9014 71.2268 41.3872 73.529 41.2005C75.4721 41.0428 77.7116 40.5841 79.2966 39.2871C81.0569 37.8468 81.0219 35.8605 80.6076 33.7384C81.0465 33.9503 82.2606 34.0815 81.5351 33.2369C81.2477 32.9024 80.7047 32.7663 80.3359 32.5696C79.9065 32.3405 79.4705 32.0445 79.1371 31.6709C77.7907 30.1622 79.1505 27.0918 80.8427 26.5858C83.3569 25.8341 83.9197 29.2979 85.7145 30.1939C86.7464 30.709 87.8258 30.0049 88.599 29.2859C89.6346 28.3228 90.3405 27.0468 90.9498 25.7483C91.4518 24.679 91.9189 23.5947 92.4305 22.5307C92.6694 22.0339 93.4965 20.6293 93.0812 20.0675C94.8819 19.7176 96.8876 20.4466 98.4385 21.4026C99.0794 21.7979 99.5681 22.2336 99.9101 22.9313C99.9833 23.0808 100.143 23.5252 100.343 23.5434C100.716 23.5773 100.576 23.1335 100.54 22.9224Z" fill="#191847"/>
<path fill-rule="evenodd" clip-rule="evenodd" d="M70.7133 108.164L100.338 184.529L121.103 240.814H132.943L104.4 108.164L70.7133 108.164Z" fill="#1F28CF"/>
<path fill-rule="evenodd" clip-rule="evenodd" d="M63.3915 108.164C63.0695 134.367 63.3023 169.644 62.552 171.277C61.8017 172.911 15.8774 208.496 15.8774 208.496L21.9802 218.606C21.9802 218.606 76.5029 184.353 79.2904 179.79C82.0779 175.226 96.0822 133.232 103.368 108.164H63.3915Z" fill="#2B44FF"/>
<path fill-rule="evenodd" clip-rule="evenodd" d="M117.372 116.126C105.671 139.866 56.4136 123.836 56.4136 123.836C56.4136 119.722 58.0885 115.598 59.8475 111.267C61.7336 106.622 63.7165 101.74 63.8351 96.3762C64.0533 86.5088 65.9472 56.6124 73.8514 46.5132C73.9952 46.057 74.1412 45.5994 74.2894 45.1406L74.8365 45.3913C74.9219 45.3055 75.0079 45.2219 75.0946 45.1406L92.3404 47.7383C92.3404 55.3374 97.3323 62.5431 101.826 69.0297C102.919 70.608 103.983 72.1437 104.939 73.6321C106.19 75.5817 107.602 77.5662 109.049 79.5998C116.378 89.8987 124.602 101.457 117.372 116.126Z" fill="#C1DEE2"/>
<path fill-rule="evenodd" clip-rule="evenodd" d="M95.2742 111.638C96.4275 105.84 97.1757 101.969 97.5187 100.025C106.706 110.139 112.014 115.255 113.442 115.372C116.128 115.593 118.112 113.273 118.677 113.925C119.611 116.626 116.973 123.387 111.931 124.37C109.524 124.84 105.798 120.003 104.263 118.29C103.66 117.615 100.663 115.398 95.2742 111.638ZM111.145 80.7234C113.526 80.7234 114.806 81.6826 116.214 83.6179C117.622 85.5531 118.955 94.6803 116.694 94.6803C114.433 94.6803 104.96 91.152 104.96 88.78C104.96 86.408 111.424 85.4035 111.424 83.6179C111.424 81.8322 108.763 80.7234 111.145 80.7234Z" fill="#B28B67"/>
<path fill-rule="evenodd" clip-rule="evenodd" d="M71.0613 56.3759C65.0126 80.9444 67.4768 101.665 90.4654 120.461C90.1952 121.405 90.0332 121.969 90.0332 121.969C63.0491 103.597 63.0361 81.332 71.0613 56.3759Z" fill="black" fill-opacity="0.2"/>
</g>
</svg>
